<svg width="40" height="42" viewBox="0 0 40 42" fill="none" xmlns="http://www.w3.org/2000/svg">
<path d="M3.79999 3.1998C3.64086 3.1998 3.48825 3.26302 3.37572 3.37554C3.2632 3.48806 3.19999 3.64067 3.19999 3.7998V28.9998C3.19999 29.331 3.46879 29.5998 3.79999 29.5998H14V31.9998H3.79999C2.14399 31.9998 0.799988 30.6558 0.799988 28.9998V3.7998C0.799988 2.1438 2.14399 0.799805 3.79999 0.799805H17C18.656 0.799805 20 2.1438 20 3.7998V9.7998C20 10.131 20.2688 10.3998 20.6 10.3998H24.2C25.856 10.3998 27.2 11.7438 27.2 13.3998V15.1998C26.3576 15.2958 25.532 15.5862 24.8 16.0758V13.3998C24.8 13.2407 24.7368 13.0881 24.6243 12.9755C24.5117 12.863 24.3591 12.7998 24.2 12.7998H20.6C18.944 12.7998 17.6 11.4558 17.6 9.7998V3.7998C17.6 3.64067 17.5368 3.48806 17.4243 3.37554C17.3117 3.26302 17.1591 3.1998 17 3.1998H3.79999ZM29.7464 18.2814C29.2035 17.8185 28.5134 17.5643 27.8 17.5643C27.0866 17.5643 26.3965 17.8185 25.8536 18.2814L17.5256 25.3854C17.1731 25.6855 16.8899 26.0584 16.6955 26.4786C16.5012 26.8988 16.4004 27.3561 16.4 27.819V38.8974C16.4 40.3902 17.6096 41.5974 19.1 41.5974H23.3C24.7904 41.5974 26 40.3902 26 38.8974V34.6998C26 34.5342 26.1344 34.3998 26.3 34.3998H29.3C29.4656 34.3998 29.6 34.5342 29.6 34.6998V38.8998C29.6 40.3878 30.8096 41.5974 32.3 41.5974H36.5C37.9904 41.5974 39.2 40.3902 39.2 38.8974V27.819C39.2 26.883 38.7896 25.9926 38.0768 25.3854L29.7464 18.2814ZM27.4112 20.1078C27.5197 20.0155 27.6575 19.9648 27.8 19.9648C27.9425 19.9648 28.0803 20.0155 28.1888 20.1078L36.5168 27.2118C36.605 27.2866 36.676 27.3796 36.7249 27.4844C36.7738 27.5892 36.7994 27.7034 36.8 27.819V38.8974C36.8 39.0654 36.6656 39.1974 36.5 39.1974H32.3C32.2204 39.1974 32.1441 39.1658 32.0879 39.1095C32.0316 39.0533 32 38.977 32 38.8974V34.6998C32 33.2094 30.7904 31.9998 29.3 31.9998H26.3C24.8096 31.9998 23.6 33.2094 23.6 34.6998V38.8998C23.5994 38.979 23.5675 39.0546 23.5113 39.1104C23.4551 39.1661 23.3791 39.1974 23.3 39.1974H19.1C19.0204 39.1974 18.9441 39.1658 18.8879 39.1095C18.8316 39.0533 18.8 38.977 18.8 38.8974V27.819C18.8 27.5862 18.9032 27.363 19.0808 27.2118L27.4088 20.1078H27.4112Z" fill="#DE703B" fill-opacity="0.6"/>
</svg>
